<svg xmlns="http://www.w3.org/2000/svg" viewBox="0 0 414 435" width="414" height="435">
    <path stroke="#00ffff"  fill="none" display="block" stroke-width="2" d="m 377,124.58443 v 171.4 c 0,11.88 -6.02,22.94 -16,29.4 l -139,89.8 a 34.98,34.98 0 0 1 -38,0 l -139,-89.8 c -9.98,-6.46 -16,-17.52 -16,-29.4 v -171.4 A 34.985,34.985 0 0 1 46.78,94.124426 l 139,-78.58 a 34.894,34.894 0 0 1 34.44,0 l 139,78.58 C 370.2,100.32443 377,111.96443 377,124.58443 Z" />
    <path id="path" stroke="#0000ff" fill="none" display="block" stroke-width="2.3" d="m 377,124.58443 v 171.4 c 0,11.88 -6.02,22.94 -16,29.4 l -139,89.8 a 34.98,34.98 0 0 1 -38,0 l -139,-89.8 c -9.98,-6.46 -16,-17.52 -16,-29.4 v -171.4 A 34.985,34.985 0 0 1 46.78,94.124426 l 139,-78.58 a 34.894,34.894 0 0 1 34.44,0 l 139,78.58 C 370.2,100.32443 377,111.96443 377,124.58443 Z" />
    <circle id="circle" r="7" fill="#0000ff" cx="0" cy="0" transform="translate(377, 124.58442687988281)"/>
</svg>